<svg width="187px" height="52px" viewBox="0 0 187 52" version="1.1" xmlns="http://www.w3.org/2000/svg" xmlns:xlink="http://www.w3.org/1999/xlink">
  <g stroke="none" stroke-width="1" fill="none" fill-rule="evenodd">
    <g fill="#EEEEEE" fill-rule="nonzero">
      <path d="M12.4,32.8 C12.3,32.7 12.2,32.7 12.2,32.6 L0.7,15.3 L0.7,38.7 L20.8,37.7 L12.4,32.8 Z" id="Shape"></path>
      <path d="M22.8,52 L31.7,34.3 L23.5,38.9 C23.4,39 23.3,39 23.2,39 L2.4,40 L22.8,52 Z" id="Shape"></path>
      <path d="M23,13.7 C23.1,13.6 23.2,13.6 23.3,13.6 L44.1,12 L23.9,0.6 L14.5,18.6 L23,13.7 Z" id="Shape"></path>
      <polygon id="Shape" points="34.8 20.5 44.1 13.4 25.6 14.8"></polygon>
      <polygon id="Shape" points="44.4 40.3 33.7 33.6 24.8 51.3"></polygon>
      <path d="M1,13.2 L12.1,29.9 L12.1,20.3 C12.1,20.2 12.1,20.1 12.2,20 L21.9,1.4 L1,13.2 Z" id="Shape"></path>
      <g id="Group" transform="translate(56.000000, 15.000000)">
        <path d="M10,0.7 C11.6,0.7 13.5,0.9 15.8,1.3 L17,1.5 L16.8,5.5 C14.4,5.3 12.6,5.1 11.4,5.1 C9.1,5.1 7.5,5.6 6.7,6.7 C5.9,7.7 5.5,9.7 5.5,12.6 C5.5,15.5 5.9,17.5 6.7,18.6 C7.5,19.7 9.1,20.3 11.5,20.3 L16.9,19.9 L17,23.9 C13.9,24.5 11.6,24.7 10,24.7 C6.5,24.7 4,23.8 2.6,21.9 C1.2,20 0.5,16.9 0.5,12.6 C0.5,8.3 1.3,5.2 2.8,3.4 C4.1,1.6 6.6,0.7 10,0.7 Z" id="Shape"></path>
        <path d="M37.8,20.1 L39.1,20 L39.2,23.7 C35.7,24.4 32.6,24.8 29.9,24.8 C26.5,24.8 24.1,23.9 22.6,22 C21.1,20.1 20.4,17.1 20.4,13 C20.4,4.8 23.7,0.8 30.4,0.8 C36.8,0.8 40.1,4.3 40.1,11.3 L39.8,14.9 L25.4,14.9 C25.4,16.8 25.8,18.2 26.6,19.1 C27.4,20 28.9,20.4 31.1,20.4 C33.3,20.3 35.5,20.2 37.8,20.1 Z M35.1,11 C35.1,8.7 34.7,7.1 34,6.2 C33.3,5.3 32.1,4.8 30.3,4.8 C28.6,4.8 27.3,5.3 26.6,6.2 C25.8,7.2 25.4,8.7 25.4,10.9 L35.1,10.9 L35.1,11 Z" id="Shape"></path>
        <path d="M49.8,24.2 L44.8,24.2 L44.8,1.2 L49.8,1.2 L49.8,2.6 C52,1.3 54.2,0.7 56.1,0.7 C59.2,0.7 61.3,1.6 62.4,3.3 C63.5,5 64.1,7.9 64.1,11.9 L64.1,24.2 L59.1,24.2 L59.1,12 C59.1,9.5 58.8,7.8 58.3,6.7 C57.8,5.7 56.7,5.1 55,5.1 C53.4,5.1 51.9,5.4 50.5,6 L49.8,6.3 L49.8,24.2 Z" id="Shape"></path>
        <path d="M85.9,5.9 C82.3,5.4 79.7,5.2 78,5.2 C76.4,5.2 75.2,5.4 74.6,5.8 C74,6.2 73.7,6.8 73.7,7.6 C73.7,8.4 74,9 74.7,9.3 C75.4,9.6 77,10 79.6,10.5 C82.2,10.9 84,11.6 85.1,12.6 C86.2,13.6 86.7,15.2 86.7,17.7 C86.7,20.1 85.9,21.9 84.4,23 C82.9,24.1 80.6,24.7 77.6,24.7 C75.7,24.7 73.4,24.4 70.5,23.9 L69.1,23.7 L69.3,19.5 C73,20 75.6,20.2 77.3,20.2 C78.9,20.2 80.1,20 80.8,19.6 C81.5,19.2 81.8,18.5 81.8,17.6 C81.8,16.7 81.5,16 80.8,15.7 C80.1,15.3 78.6,15 76.1,14.6 C73.6,14.2 71.8,13.5 70.6,12.6 C69.4,11.7 68.9,10.1 68.9,7.7 C68.9,5.3 69.7,3.6 71.3,2.4 C72.9,1.2 75,0.7 77.5,0.7 C79.5,0.7 81.9,0.9 84.7,1.4 L86.1,1.7 L85.9,5.9 Z" id="Shape"></path>
        <polygon id="Shape" points="89.1 1.2 94 1.2 98.9 19.9 100.1 19.9 105 1.2 110 1.2 101.3 34.1 96.4 34.1 99.2 24.2 95.2 24.2"></polygon>
        <path d="M129.5,5.9 C125.9,5.4 123.3,5.2 121.6,5.2 C120,5.2 118.8,5.4 118.2,5.8 C117.6,6.2 117.3,6.8 117.3,7.6 C117.3,8.4 117.6,9 118.3,9.3 C119,9.6 120.6,10 123.2,10.5 C125.8,10.9 127.6,11.6 128.7,12.6 C129.8,13.6 130.3,15.2 130.3,17.7 C130.3,20.1 129.5,21.9 128,23 C126.5,24.1 124.2,24.7 121.2,24.7 C119.3,24.7 117,24.4 114.1,23.9 L112.7,23.7 L112.9,19.5 C116.6,20 119.2,20.2 120.9,20.2 C122.5,20.2 123.7,20 124.4,19.6 C125.1,19.2 125.4,18.5 125.4,17.6 C125.4,16.7 125.1,16 124.4,15.7 C123.7,15.3 122.2,15 119.7,14.6 C117.2,14.2 115.4,13.5 114.2,12.6 C113,11.7 112.5,10.1 112.5,7.7 C112.5,5.3 113.3,3.6 114.9,2.4 C116.5,1.2 118.6,0.7 121.1,0.7 C123.1,0.7 125.5,0.9 128.3,1.4 L129.7,1.7 L129.5,5.9 Z" id="Shape"></path>
      </g>
    </g>
  </g>
</svg>